<mxfile host="65bd71144e">
    <diagram id="qN9f6SguFEnq_v_EkjNl" name="MainPage">
        <mxGraphModel dx="291" dy="790" grid="1" gridSize="10" guides="1" tooltips="1" connect="1" arrows="1" fold="1" page="1" pageScale="1" pageWidth="827" pageHeight="1169" math="0" shadow="0">
            <root>
                <mxCell id="0"/>
                <mxCell id="1" parent="0"/>
                <mxCell id="30" style="edgeStyle=orthogonalEdgeStyle;rounded=0;orthogonalLoop=1;jettySize=auto;html=1;" parent="1" source="3" target="29" edge="1">
                    <mxGeometry relative="1" as="geometry"/>
                </mxCell>
                <mxCell id="31" style="edgeStyle=orthogonalEdgeStyle;rounded=0;orthogonalLoop=1;jettySize=auto;html=1;" parent="1" source="3" target="17" edge="1">
                    <mxGeometry relative="1" as="geometry"/>
                </mxCell>
                <mxCell id="3" value="Employer/Работодатель" style="shape=umlActor;verticalLabelPosition=bottom;verticalAlign=top;html=1;outlineConnect=0;" parent="1" vertex="1">
                    <mxGeometry x="1226" y="50" width="30" height="60" as="geometry"/>
                </mxCell>
                <mxCell id="26" style="edgeStyle=orthogonalEdgeStyle;rounded=0;orthogonalLoop=1;jettySize=auto;html=1;entryX=0.5;entryY=1;entryDx=0;entryDy=0;" parent="1" source="4" target="23" edge="1">
                    <mxGeometry relative="1" as="geometry"/>
                </mxCell>
                <mxCell id="28" style="edgeStyle=orthogonalEdgeStyle;rounded=0;orthogonalLoop=1;jettySize=auto;html=1;entryX=0.5;entryY=1;entryDx=0;entryDy=0;" parent="1" source="4" target="16" edge="1">
                    <mxGeometry relative="1" as="geometry"/>
                </mxCell>
                <mxCell id="4" value="Worker/Сотрудник" style="shape=umlActor;verticalLabelPosition=bottom;verticalAlign=top;html=1;outlineConnect=0;" parent="1" vertex="1">
                    <mxGeometry x="1226" y="1060" width="30" height="60" as="geometry"/>
                </mxCell>
                <mxCell id="9" value="" style="rounded=0;whiteSpace=wrap;html=1;" parent="1" vertex="1">
                    <mxGeometry x="881" y="390" width="720" height="320" as="geometry"/>
                </mxCell>
                <mxCell id="25" style="edgeStyle=orthogonalEdgeStyle;rounded=0;orthogonalLoop=1;jettySize=auto;html=1;" parent="1" source="16" target="9" edge="1">
                    <mxGeometry relative="1" as="geometry"/>
                </mxCell>
                <mxCell id="16" value="Web" style="swimlane;" parent="1" vertex="1">
                    <mxGeometry x="1196.5" y="930" width="89" height="80" as="geometry"/>
                </mxCell>
                <mxCell id="33" style="edgeStyle=orthogonalEdgeStyle;rounded=0;orthogonalLoop=1;jettySize=auto;html=1;entryX=0.5;entryY=0;entryDx=0;entryDy=0;" parent="1" source="17" target="9" edge="1">
                    <mxGeometry relative="1" as="geometry"/>
                </mxCell>
                <mxCell id="17" value="Web" style="swimlane;" parent="1" vertex="1">
                    <mxGeometry x="1196" y="160" width="90" height="80" as="geometry"/>
                </mxCell>
                <mxCell id="18" value="Redis" style="shape=datastore;whiteSpace=wrap;html=1;" parent="1" vertex="1">
                    <mxGeometry x="1136" y="640" width="60" height="60" as="geometry"/>
                </mxCell>
                <mxCell id="19" value="PG" style="shape=datastore;whiteSpace=wrap;html=1;" parent="1" vertex="1">
                    <mxGeometry x="950" y="640" width="60" height="60" as="geometry"/>
                </mxCell>
                <mxCell id="20" value="Kafka" style="shape=datastore;whiteSpace=wrap;html=1;" parent="1" vertex="1">
                    <mxGeometry x="1470" y="640" width="60" height="60" as="geometry"/>
                </mxCell>
                <mxCell id="24" style="edgeStyle=orthogonalEdgeStyle;rounded=0;orthogonalLoop=1;jettySize=auto;html=1;entryX=0.5;entryY=1;entryDx=0;entryDy=0;" parent="1" source="23" target="9" edge="1">
                    <mxGeometry relative="1" as="geometry"/>
                </mxCell>
                <mxCell id="23" value="ios/android" style="shape=ext;double=1;rounded=0;whiteSpace=wrap;html=1;" parent="1" vertex="1">
                    <mxGeometry x="1060" y="1010" width="70" height="50" as="geometry"/>
                </mxCell>
                <mxCell id="32" style="edgeStyle=orthogonalEdgeStyle;rounded=0;orthogonalLoop=1;jettySize=auto;html=1;" parent="1" source="29" target="9" edge="1">
                    <mxGeometry relative="1" as="geometry"/>
                </mxCell>
                <mxCell id="29" value="ios/android" style="shape=ext;double=1;rounded=0;whiteSpace=wrap;html=1;" parent="1" vertex="1">
                    <mxGeometry x="1050" y="160" width="70" height="50" as="geometry"/>
                </mxCell>
                <mxCell id="36" value="" style="endArrow=none;html=1;entryX=1;entryY=0.75;entryDx=0;entryDy=0;exitX=0;exitY=0.75;exitDx=0;exitDy=0;" parent="1" source="9" target="9" edge="1">
                    <mxGeometry width="50" height="50" relative="1" as="geometry">
                        <mxPoint x="990" y="610" as="sourcePoint"/>
                        <mxPoint x="1040" y="560" as="targetPoint"/>
                        <Array as="points">
                            <mxPoint x="1241" y="610"/>
                            <mxPoint x="1250" y="560"/>
                            <mxPoint x="1260" y="610"/>
                            <mxPoint x="1420" y="620"/>
                        </Array>
                    </mxGeometry>
                </mxCell>
                <mxCell id="37" value="" style="endArrow=none;html=1;exitX=0;exitY=0.25;exitDx=0;exitDy=0;entryX=1;entryY=0.25;entryDx=0;entryDy=0;" parent="1" source="9" target="9" edge="1">
                    <mxGeometry width="50" height="50" relative="1" as="geometry">
                        <mxPoint x="1220" y="660" as="sourcePoint"/>
                        <mxPoint x="1270" y="610" as="targetPoint"/>
                        <Array as="points">
                            <mxPoint x="1100" y="500"/>
                            <mxPoint x="1240" y="520"/>
                            <mxPoint x="1250" y="570"/>
                            <mxPoint x="1260" y="520"/>
                            <mxPoint x="1410" y="500"/>
                        </Array>
                    </mxGeometry>
                </mxCell>
                <mxCell id="39" value="Auth" style="shape=ext;double=1;rounded=0;whiteSpace=wrap;html=1;" parent="1" vertex="1">
                    <mxGeometry x="900" y="410" width="80" height="40" as="geometry"/>
                </mxCell>
                <mxCell id="40" value="Analytic" style="shape=ext;double=1;rounded=0;whiteSpace=wrap;html=1;" parent="1" vertex="1">
                    <mxGeometry x="1000" y="410" width="80" height="40" as="geometry"/>
                </mxCell>
                <mxCell id="41" value="Task" style="shape=ext;double=1;rounded=0;whiteSpace=wrap;html=1;" parent="1" vertex="1">
                    <mxGeometry x="1100" y="410" width="80" height="40" as="geometry"/>
                </mxCell>
                <mxCell id="42" value="Notification" style="shape=ext;double=1;rounded=0;whiteSpace=wrap;html=1;" parent="1" vertex="1">
                    <mxGeometry x="1196" y="410" width="80" height="40" as="geometry"/>
                </mxCell>
                <mxCell id="43" value="Profile" style="shape=ext;double=1;rounded=0;whiteSpace=wrap;html=1;" parent="1" vertex="1">
                    <mxGeometry x="1286" y="410" width="80" height="40" as="geometry"/>
                </mxCell>
                <mxCell id="44" value="Badgh" style="shape=ext;double=1;rounded=0;whiteSpace=wrap;html=1;" parent="1" vertex="1">
                    <mxGeometry x="1380" y="410" width="80" height="40" as="geometry"/>
                </mxCell>
                <mxCell id="45" value="Sales" style="shape=ext;double=1;rounded=0;whiteSpace=wrap;html=1;" parent="1" vertex="1">
                    <mxGeometry x="1480" y="410" width="80" height="40" as="geometry"/>
                </mxCell>
                <mxCell id="46" value="Main Layer" style="text;html=1;strokeColor=none;fillColor=none;align=center;verticalAlign=middle;whiteSpace=wrap;rounded=0;" parent="1" vertex="1">
                    <mxGeometry x="1230" y="490" width="40" height="20" as="geometry"/>
                </mxCell>
                <mxCell id="47" value="Integration Layer" style="text;html=1;strokeColor=none;fillColor=none;align=center;verticalAlign=middle;whiteSpace=wrap;rounded=0;" parent="1" vertex="1">
                    <mxGeometry x="1270" y="550" width="40" height="20" as="geometry"/>
                </mxCell>
                <mxCell id="48" value="Support&lt;br&gt;Layer" style="text;html=1;strokeColor=none;fillColor=none;align=center;verticalAlign=middle;whiteSpace=wrap;rounded=0;" parent="1" vertex="1">
                    <mxGeometry x="1186" y="555" width="40" height="15" as="geometry"/>
                </mxCell>
                <mxCell id="49" value="DB&lt;br&gt;Layer" style="text;html=1;strokeColor=none;fillColor=none;align=center;verticalAlign=middle;whiteSpace=wrap;rounded=0;" parent="1" vertex="1">
                    <mxGeometry x="1230" y="615" width="40" height="25" as="geometry"/>
                </mxCell>
                <mxCell id="50" value="Общий взгляд на структуру проекта" style="text;html=1;strokeColor=none;fillColor=none;align=center;verticalAlign=middle;whiteSpace=wrap;rounded=0;" parent="1" vertex="1">
                    <mxGeometry x="840" y="20" width="160" height="90" as="geometry"/>
                </mxCell>
            </root>
        </mxGraphModel>
    </diagram>
    <diagram id="kY2D2yPNnmZTpd6snSqv" name="EmployerPositiveEfect">
        <mxGraphModel dx="1118" dy="790" grid="1" gridSize="10" guides="1" tooltips="1" connect="1" arrows="1" fold="1" page="1" pageScale="1" pageWidth="827" pageHeight="1169" math="0" shadow="0">
            <root>
                <mxCell id="XnfeVoaatPz6cl3Ur-fb-0"/>
                <mxCell id="XnfeVoaatPz6cl3Ur-fb-1" parent="XnfeVoaatPz6cl3Ur-fb-0"/>
                <mxCell id="XnfeVoaatPz6cl3Ur-fb-2" value="Нет необходимости трудоустройства не проверенного специалиста" style="rounded=1;whiteSpace=wrap;html=1;" parent="XnfeVoaatPz6cl3Ur-fb-1" vertex="1">
                    <mxGeometry x="455" y="380" width="130" height="90" as="geometry"/>
                </mxCell>
                <mxCell id="XnfeVoaatPz6cl3Ur-fb-3" value="расчет после завершение задач" style="rounded=1;whiteSpace=wrap;html=1;" parent="XnfeVoaatPz6cl3Ur-fb-1" vertex="1">
                    <mxGeometry x="460" y="220" width="120" height="60" as="geometry"/>
                </mxCell>
                <mxCell id="XnfeVoaatPz6cl3Ur-fb-4" value="Возможность собрать команду из подходящих спецов под конкретный проект&amp;nbsp;" style="rounded=1;whiteSpace=wrap;html=1;" parent="XnfeVoaatPz6cl3Ur-fb-1" vertex="1">
                    <mxGeometry x="310" y="290" width="140" height="80" as="geometry"/>
                </mxCell>
                <mxCell id="XnfeVoaatPz6cl3Ur-fb-5" value="Система выявление сильных сторон специалиста относительно задач&amp;nbsp;" style="rounded=1;whiteSpace=wrap;html=1;" parent="XnfeVoaatPz6cl3Ur-fb-1" vertex="1">
                    <mxGeometry x="180" y="220" width="120" height="60" as="geometry"/>
                </mxCell>
                <mxCell id="XnfeVoaatPz6cl3Ur-fb-6" value="Можно адаптировать будущего сотрудника под конкретный тип проекта" style="rounded=1;whiteSpace=wrap;html=1;" parent="XnfeVoaatPz6cl3Ur-fb-1" vertex="1">
                    <mxGeometry x="180" y="380" width="120" height="90" as="geometry"/>
                </mxCell>
                <mxCell id="XnfeVoaatPz6cl3Ur-fb-7" value="Плюсы системы для Работодателя" style="text;html=1;strokeColor=none;fillColor=none;align=center;verticalAlign=middle;whiteSpace=wrap;rounded=0;" parent="XnfeVoaatPz6cl3Ur-fb-1" vertex="1">
                    <mxGeometry x="30" y="30" width="160" height="70" as="geometry"/>
                </mxCell>
            </root>
        </mxGraphModel>
    </diagram>
    <diagram id="gWhxrnm2cDO0FGNdAmKf" name="WorkerPositiveEfect">
        <mxGraphModel dx="1118" dy="790" grid="1" gridSize="10" guides="1" tooltips="1" connect="1" arrows="1" fold="1" page="1" pageScale="1" pageWidth="827" pageHeight="1169" math="0" shadow="0">
            <root>
                <mxCell id="f8O2Mtjs3gzefLLolsrp-0"/>
                <mxCell id="f8O2Mtjs3gzefLLolsrp-1" parent="f8O2Mtjs3gzefLLolsrp-0"/>
                <mxCell id="f8O2Mtjs3gzefLLolsrp-2" value="Плюсы системы для Специалиста" style="text;html=1;strokeColor=none;fillColor=none;align=center;verticalAlign=middle;whiteSpace=wrap;rounded=0;" parent="f8O2Mtjs3gzefLLolsrp-1" vertex="1">
                    <mxGeometry x="30" y="30" width="160" height="70" as="geometry"/>
                </mxCell>
                <mxCell id="f8O2Mtjs3gzefLLolsrp-3" value="Возможность попробовать себя в разных ролях на разных проектах" style="rounded=1;whiteSpace=wrap;html=1;" parent="f8O2Mtjs3gzefLLolsrp-1" vertex="1">
                    <mxGeometry x="267" y="200" width="120" height="60" as="geometry"/>
                </mxCell>
                <mxCell id="f8O2Mtjs3gzefLLolsrp-4" value="Возможность получить опыт в реальном проекте" style="rounded=1;whiteSpace=wrap;html=1;" parent="f8O2Mtjs3gzefLLolsrp-1" vertex="1">
                    <mxGeometry x="441" y="200" width="120" height="60" as="geometry"/>
                </mxCell>
                <mxCell id="f8O2Mtjs3gzefLLolsrp-5" value="Заработок ограничен только успешностью и колвом задач" style="rounded=1;whiteSpace=wrap;html=1;" parent="f8O2Mtjs3gzefLLolsrp-1" vertex="1">
                    <mxGeometry x="267" y="300" width="120" height="60" as="geometry"/>
                </mxCell>
                <mxCell id="f8O2Mtjs3gzefLLolsrp-6" value="Возможность ознакомится с продуктом до официального трудойстройства" style="rounded=1;whiteSpace=wrap;html=1;" parent="f8O2Mtjs3gzefLLolsrp-1" vertex="1">
                    <mxGeometry x="277" y="400" width="120" height="90" as="geometry"/>
                </mxCell>
                <mxCell id="f8O2Mtjs3gzefLLolsrp-7" value="Возможность познакомится с компанией до официального трудойстройства" style="rounded=1;whiteSpace=wrap;html=1;" parent="f8O2Mtjs3gzefLLolsrp-1" vertex="1">
                    <mxGeometry x="441" y="285" width="120" height="90" as="geometry"/>
                </mxCell>
                <mxCell id="f8O2Mtjs3gzefLLolsrp-8" value="Возможность доказать свои знания и опыт на деле и получить положительный результат в трудоустройстве" style="rounded=1;whiteSpace=wrap;html=1;" parent="f8O2Mtjs3gzefLLolsrp-1" vertex="1">
                    <mxGeometry x="441" y="400" width="120" height="110" as="geometry"/>
                </mxCell>
            </root>
        </mxGraphModel>
    </diagram>
    <diagram id="ETldZVqh4ydlggB3LTex" name="WhoOurClient">
        <mxGraphModel dx="1118" dy="790" grid="1" gridSize="10" guides="1" tooltips="1" connect="1" arrows="1" fold="1" page="1" pageScale="1" pageWidth="827" pageHeight="1169" math="0" shadow="0">
            <root>
                <mxCell id="UJ3vFx4Oic8WtJfLYixI-0"/>
                <mxCell id="UJ3vFx4Oic8WtJfLYixI-1" parent="UJ3vFx4Oic8WtJfLYixI-0"/>
            </root>
        </mxGraphModel>
    </diagram>
</mxfile>